<?xml version="1.0" encoding="UTF-8" standalone="no"?>
<!-- Created with Inkscape (http://www.inkscape.org/) -->

<svg
   xmlns:dc="http://purl.org/dc/elements/1.1/"
   xmlns:cc="http://creativecommons.org/ns#"
   xmlns:rdf="http://www.w3.org/1999/02/22-rdf-syntax-ns#"
   xmlns:svg="http://www.w3.org/2000/svg"
   xmlns="http://www.w3.org/2000/svg"
   xmlns:xlink="http://www.w3.org/1999/xlink"
   xmlns:sodipodi="http://sodipodi.sourceforge.net/DTD/sodipodi-0.dtd"
   xmlns:inkscape="http://www.inkscape.org/namespaces/inkscape"
   width="317.5mm"
   height="132.29167mm"
   viewBox="0 0 317.5 132.29168"
   version="1.1"
   id="svg872"
   inkscape:version="0.92.2 (5c3e80d, 2017-08-06)"
   sodipodi:docname="bg3.svg">
  <defs
     id="defs866">
    <inkscape:path-effect
       effect="spiro"
       id="path-effect5745"
       is_visible="true" />
    <radialGradient
       inkscape:collect="always"
       xlink:href="#linearGradient10946"
       id="radialGradient848"
       gradientUnits="userSpaceOnUse"
       gradientTransform="matrix(-0.82857127,-0.00266051,0.00165839,-0.48131899,249.94754,203.49473)"
       cx="141.03351"
       cy="201.62646"
       fx="141.03351"
       fy="201.62646"
       r="158.75" />
    <linearGradient
       inkscape:collect="always"
       id="linearGradient10946">
      <stop
         style="stop-color:#002194;stop-opacity:1"
         offset="0"
         id="stop10942" />
      <stop
         id="stop10952"
         offset="0.59004939"
         style="stop-color:#000d3d;stop-opacity:1" />
      <stop
         id="stop10950"
         offset="0.8065995"
         style="stop-color:#000721;stop-opacity:1;" />
      <stop
         style="stop-color:#000000;stop-opacity:1"
         offset="1"
         id="stop10944" />
    </linearGradient>
    <radialGradient
       inkscape:collect="always"
       xlink:href="#linearGradient10946"
       id="radialGradient965"
       gradientUnits="userSpaceOnUse"
       gradientTransform="matrix(-0.82857125,-0.00266051,0.00165839,-0.48131899,271.1142,153.30835)"
       cx="141.03351"
       cy="201.62646"
       fx="141.03351"
       fy="201.62646"
       r="158.75" />
  </defs>
  <sodipodi:namedview
     id="base"
     pagecolor="#ffffff"
     bordercolor="#666666"
     borderopacity="1.0"
     inkscape:pageopacity="0.0"
     inkscape:pageshadow="2"
     inkscape:zoom="1.4"
     inkscape:cx="579.52119"
     inkscape:cy="75.606401"
     inkscape:document-units="mm"
     inkscape:current-layer="layer3"
     showgrid="false"
     inkscape:window-width="1920"
     inkscape:window-height="1051"
     inkscape:window-x="-9"
     inkscape:window-y="-9"
     inkscape:window-maximized="1"
     inkscape:snap-global="false" />
  <metadata
     id="metadata869">
    <rdf:RDF>
      <cc:Work
         rdf:about="">
        <dc:format>image/svg+xml</dc:format>
        <dc:type
           rdf:resource="http://purl.org/dc/dcmitype/StillImage" />
        <dc:title />
      </cc:Work>
    </rdf:RDF>
  </metadata>
  <g
     inkscape:groupmode="layer"
     id="layer3"
     inkscape:label="Layer 3"
     style="display:inline">
    <path
       style="display:inline;fill:url(#radialGradient965);fill-opacity:1;stroke:none;stroke-width:4.25278378;stroke-linecap:square;stroke-linejoin:miter;stroke-miterlimit:4;stroke-dasharray:none;stroke-opacity:1;paint-order:fill markers stroke"
       d="M 0,-2.0540361e-7 V 132.29167 H 317.5 V -2.0540361e-7 Z M 234.19397,5.4689167 c 10.58072,0.0422 20.78499,2.8593677 27.62054,8.5622683 26.00916,21.699445 18.94389,49.454374 8.20673,72.252954 -15.18566,32.244191 -4.90615,45.074771 -4.90615,45.074771 h -49.45435 c -0.32705,-7.75412 1.42072,-4.12145 -1.7663,-12.36359 -3.50207,-5.80724 -4.53429,-2.27571 -18.86138,-3.61167 -8.5545,-4.56329 -1.88125,-13.5826 -3.38843,-16.182987 -1.85241,-3.196 -2.15636,-1.293791 -3.78943,-4.36459 0.26742,-1.195441 0.94251,-3.161467 2.73989,-2.472201 -0.84892,-0.390938 -2.84902,-1.488927 -3.43184,-3.654557 0.51407,-3.44991 4.27572,-5.013029 1.22008,-6.564458 -3.97474,-2.018059 -6.2376,-0.779076 -8.61653,-2.258777 -1.9915,-1.238729 -1.36767,-4.261559 -0.79839,-5.25136 3.37549,-5.868948 7.07685,-9.845226 12.44575,-20.831286 0,0 -0.22198,-2.375869 -2.96985,-8.056872 -1.98271,-4.099063 2.45364,-15.084534 3.56102,-17.880563 5.87358,-14.830144 24.55412,-22.467416 42.18864,-22.3970823 z"
       id="rect846"
       inkscape:connector-curvature="0" />
  </g>
</svg>
